<?xml version="1.0" encoding="utf-8"?>
<!-- Generator: Adobe Illustrator 21.1.0, SVG Export Plug-In . SVG Version: 6.00 Build 0)  -->
<svg version="1.1" id="Layer_1" xmlns="http://www.w3.org/2000/svg" xmlns:xlink="http://www.w3.org/1999/xlink" x="0px" y="0px"
	 viewBox="0 0 92.8 92.8" style="enable-background:new 0 0 92.8 92.8;" xml:space="preserve">
<style type="text/css">
	.st0{fill:#D8391E;}
	.st1{fill:#FFFFFF;}
</style>
<title>choice</title>
<circle class="st0" cx="46.4" cy="46.4" r="46.4"/>
<g>
	<path class="st1" d="M47,20.3c-13.8,0-25.1,11.2-25.1,25.1S33.2,70.5,47,70.5s25.1-11.2,25.1-25.1S60.8,20.3,47,20.3z M47,65.5
		c-11,0-20.1-9-20.1-20.1s9-20.1,20.1-20.1s20.1,9,20.1,20.1S58,65.5,47,65.5z"/>
	<path class="st1" d="M56.8,47l-7.3-3.2V32.5c0-1.4-1.1-2.5-2.5-2.5c-1.4,0-2.5,1.1-2.5,2.5v12.9c0,1,0.6,1.9,1.5,2.3l8.8,3.9
		c0.3,0.2,0.7,0.2,1,0.2c1,0,1.9-0.6,2.3-1.5C58.7,49,58.1,47.5,56.8,47z"/>
</g>
</svg>
